<svg xmlns="http://www.w3.org/2000/svg" width="980" height="560" viewBox="0 0 980 560" role="img" aria-labelledby="title desc">
  <title id="title">Previa do dashboard AstroBand</title>
  <desc id="desc">Representacao visual do dashboard com conexao MQTT, cards e grafico.</desc>
  <rect width="980" height="560" fill="#f4f7fb"/>
  <g font-family="Arial, Helvetica, sans-serif">
    <rect x="20" y="24" width="58" height="58" rx="8" fill="#0f766e"/>
    <text x="49" y="59" text-anchor="middle" font-size="18" font-weight="800" fill="#ffffff">AB</text>
    <text x="96" y="42" font-size="13" font-weight="700" fill="#687386">FIAP | DISRUPTIVE ARCHITECTURES</text>
    <text x="96" y="82" font-size="52" font-weight="800" fill="#18202f">AstroBand</text>

    <rect x="760" y="42" width="172" height="42" rx="8" fill="#ffffff" stroke="#dce3ed"/>
    <circle cx="784" cy="63" r="6" fill="#16a34a"/>
    <text x="802" y="68" font-size="14" font-weight="700" fill="#687386">MQTT conectado</text>

    <rect x="48" y="120" width="884" height="74" rx="8" fill="#ffffff" stroke="#dce3ed"/>
    <text x="72" y="151" font-size="12" font-weight="700" fill="#687386">ESP32 WOKWI</text>
    <text x="72" y="175" font-size="20" font-weight="700" fill="#18202f">Conexao em tempo real</text>
    <rect x="560" y="141" width="250" height="34" rx="8" fill="#fbfdff" stroke="#dce3ed"/>
    <text x="576" y="163" font-size="13" fill="#687386">http://localhost:9080</text>
    <rect x="822" y="141" width="90" height="34" rx="8" fill="#111827"/>
    <text x="867" y="163" text-anchor="middle" font-size="13" font-weight="700" fill="#ffffff">Usar REST</text>

    <g transform="translate(48 214)">
      <rect width="206" height="110" rx="8" fill="#ffffff" stroke="#dce3ed"/>
      <text x="20" y="34" font-size="12" font-weight="700" fill="#687386">TEMPERATURA</text>
      <text x="20" y="76" font-size="36" font-weight="800" fill="#18202f">36.8 C</text>
      <rect x="20" y="86" width="74" height="24" rx="12" fill="#dcfce7"/>
      <text x="57" y="103" text-anchor="middle" font-size="12" font-weight="700" fill="#166534">Normal</text>
    </g>

    <g transform="translate(274 214)">
      <rect width="206" height="110" rx="8" fill="#ffffff" stroke="#dce3ed"/>
      <text x="20" y="34" font-size="12" font-weight="700" fill="#687386">BATIMENTOS</text>
      <text x="20" y="76" font-size="36" font-weight="800" fill="#18202f">82 bpm</text>
      <rect x="20" y="86" width="74" height="24" rx="12" fill="#dcfce7"/>
      <text x="57" y="103" text-anchor="middle" font-size="12" font-weight="700" fill="#166534">Normal</text>
    </g>

    <g transform="translate(500 214)">
      <rect width="206" height="110" rx="8" fill="#ffffff" stroke="#dce3ed"/>
      <text x="20" y="34" font-size="12" font-weight="700" fill="#687386">LOCALIZACAO</text>
      <text x="20" y="76" font-size="36" font-weight="800" fill="#18202f">121 cm</text>
      <rect x="20" y="86" width="94" height="24" rx="12" fill="#dcfce7"/>
      <text x="67" y="103" text-anchor="middle" font-size="12" font-weight="700" fill="#166534">Zona segura</text>
    </g>

    <g transform="translate(726 214)">
      <rect width="206" height="110" rx="8" fill="#ffffff" stroke="#dce3ed"/>
      <text x="20" y="34" font-size="12" font-weight="700" fill="#687386">STATUS</text>
      <text x="20" y="76" font-size="30" font-weight="800" fill="#16a34a">Estavel</text>
    </g>

    <rect x="48" y="346" width="580" height="146" rx="8" fill="#ffffff" stroke="#dce3ed"/>
    <text x="72" y="380" font-size="12" font-weight="700" fill="#687386">TELEMETRIA</text>
    <text x="72" y="404" font-size="20" font-weight="700" fill="#18202f">Missao em tempo real</text>
    <line x1="82" y1="448" x2="594" y2="448" stroke="#dce3ed"/>
    <line x1="82" y1="476" x2="594" y2="476" stroke="#dce3ed"/>
    <path d="M90 462 C160 424 230 486 306 444 S460 436 596 454" fill="none" stroke="#dc2626" stroke-width="5"/>
    <path d="M90 480 C190 462 252 428 340 458 S482 488 596 432" fill="none" stroke="#2563eb" stroke-width="5"/>

    <rect x="650" y="346" width="282" height="64" rx="8" fill="#ffffff" stroke="#dce3ed"/>
    <text x="674" y="374" font-size="12" font-weight="700" fill="#687386">STATUS DA MISSAO</text>
    <text x="674" y="398" font-size="24" font-weight="800" fill="#18202f">Missao estavel</text>

    <rect x="650" y="426" width="282" height="66" rx="8" fill="#ffffff" stroke="#dce3ed"/>
    <text x="674" y="454" font-size="12" font-weight="700" fill="#687386">FONTE DOS DADOS</text>
    <rect x="674" y="464" width="234" height="20" rx="4" fill="#111827"/>
    <text x="682" y="479" font-size="11" fill="#d1fae5">MQTT: fiap/iot/astroband/telemetria</text>
  </g>
</svg>
